<svg width="129" height="24" viewBox="0 0 129 24" fill="none" xmlns="http://www.w3.org/2000/svg">
<g clip-path="url(#clip0_2116_823)">
<path d="M39.4689 5.05199C44.5229 5.05199 47.0499 7.45999 47.0499 12.276C47.0499 17.092 44.5229 19.5 39.4689 19.5H33.2109V5.05199H39.4689ZM37.8519 16.035H39.3849C41.3309 16.035 42.3039 14.992 42.3039 12.906V11.646C42.3039 9.55999 41.3309 8.51699 39.3849 8.51699H37.8519V16.035ZM54.9947 8.15999C57.0246 8.15999 58.5716 8.63599 59.6357 9.58799C60.7136 10.54 61.2527 11.996 61.2527 13.956V14.67H52.9367C52.9367 15.468 53.1116 16.0699 53.4617 16.476C53.8256 16.882 54.3926 17.085 55.1627 17.085C55.8626 17.085 56.3736 16.938 56.6957 16.644C57.0317 16.35 57.1997 15.958 57.1997 15.468H61.2527C61.2527 16.812 60.7416 17.862 59.7197 18.618C58.6976 19.374 57.2066 19.752 55.2467 19.752C53.1887 19.752 51.5927 19.276 50.4587 18.324C49.3247 17.358 48.7577 15.9019 48.7577 13.956C48.7577 12.052 49.3106 10.61 50.4167 9.62999C51.5226 8.65 53.0486 8.15999 54.9947 8.15999ZM55.1627 10.827C53.8466 10.827 53.1116 11.45 52.9577 12.696H57.0317C57.0317 12.122 56.8637 11.667 56.5277 11.331C56.2056 10.995 55.7507 10.827 55.1627 10.827ZM69.6315 4.79999C71.4795 4.79999 72.9984 5.17799 74.1885 5.93399C75.3785 6.676 75.9875 7.78199 76.0155 9.25199V9.50399H71.6685V9.41999C71.6685 8.99999 71.5145 8.65 71.2065 8.36999C70.8984 8.08999 70.4295 7.94999 69.7995 7.94999C69.1835 7.94999 68.7075 8.041 68.3715 8.22299C68.0495 8.40499 67.8885 8.629 67.8885 8.89499C67.8885 9.27299 68.1125 9.553 68.5605 9.73499C69.0084 9.91699 69.7295 10.106 70.7235 10.302C71.8854 10.54 72.8375 10.792 73.5795 11.058C74.3355 11.31 74.9934 11.73 75.5535 12.318C76.1135 12.906 76.4004 13.704 76.4145 14.712C76.4145 16.42 75.8334 17.6869 74.6715 18.513C73.5234 19.339 71.9835 19.752 70.0515 19.752C67.7975 19.752 66.0405 19.374 64.7805 18.618C63.5345 17.862 62.9115 16.525 62.9115 14.607H67.3005C67.3005 15.3349 67.4895 15.825 67.8675 16.077C68.2455 16.315 68.8335 16.434 69.6315 16.434C70.2195 16.434 70.7025 16.371 71.0805 16.245C71.4725 16.119 71.6685 15.8599 71.6685 15.468C71.6685 15.118 71.4515 14.859 71.0175 14.691C70.5975 14.509 69.9045 14.32 68.9385 14.124C67.7625 13.872 66.7895 13.613 66.0195 13.347C65.2494 13.067 64.5774 12.612 64.0035 11.982C63.4295 11.352 63.1425 10.498 63.1425 9.41999C63.1425 7.83799 63.7515 6.676 64.9695 5.93399C66.2015 5.17799 67.7555 4.79999 69.6315 4.79999ZM82.6028 9.56699C83.0507 9.11899 83.5757 8.776 84.1778 8.53799C84.7797 8.28599 85.4097 8.15999 86.0678 8.15999C87.3557 8.15999 88.3217 8.51699 88.9658 9.23099C89.6097 9.94499 89.9318 10.974 89.9318 12.318V19.5H85.7528V12.822C85.7528 12.346 85.6268 11.968 85.3748 11.688C85.1367 11.394 84.7937 11.247 84.3458 11.247C83.8277 11.247 83.4077 11.415 83.0858 11.751C82.7637 12.087 82.6028 12.5 82.6028 12.99V19.5H78.4238V4.27499H82.6028V9.56699ZM97.9116 8.15999C99.6056 8.15999 100.985 8.44699 102.049 9.02099C103.113 9.58099 103.645 10.498 103.645 11.772V16.098C103.645 16.336 103.701 16.5319 103.813 16.686C103.925 16.84 104.093 16.917 104.317 16.917H105.073V19.332C105.031 19.36 104.919 19.4089 104.737 19.479C104.569 19.5349 104.324 19.591 104.002 19.647C103.68 19.717 103.309 19.752 102.889 19.752C102.077 19.752 101.405 19.633 100.873 19.395C100.355 19.143 99.9975 18.7999 99.8016 18.366C99.2696 18.786 98.6745 19.122 98.0166 19.374C97.3586 19.626 96.5886 19.752 95.7066 19.752C93.1026 19.752 91.8006 18.7159 91.8006 16.644C91.8006 15.5659 92.0876 14.747 92.6616 14.187C93.2496 13.613 94.0896 13.221 95.1816 13.011C96.2736 12.801 97.7016 12.696 99.4656 12.696V12.15C99.4656 11.716 99.3116 11.387 99.0036 11.163C98.7096 10.939 98.3246 10.827 97.8486 10.827C97.4145 10.827 97.0365 10.904 96.7146 11.058C96.4065 11.212 96.2526 11.457 96.2526 11.793V11.877H92.1366C92.1225 11.807 92.1156 11.709 92.1156 11.583C92.1156 10.533 92.6126 9.7 93.6066 9.08399C94.6146 8.46799 96.0495 8.15999 97.9116 8.15999ZM99.4656 14.67C98.2755 14.67 97.3935 14.803 96.8196 15.069C96.2595 15.321 95.9796 15.664 95.9796 16.098C95.9796 16.798 96.4556 17.148 97.4076 17.148C97.9536 17.148 98.4296 17.001 98.8356 16.707C99.2556 16.413 99.4656 16.0489 99.4656 15.615V14.67ZM113.178 8.13899C113.5 8.13899 113.787 8.18099 114.039 8.26499C114.291 8.335 114.417 8.377 114.417 8.39099V11.898H113.073C112.205 11.898 111.575 12.122 111.183 12.57C110.805 13.018 110.616 13.683 110.616 14.565V19.5H106.437V8.41199H109.86L110.133 10.092C110.385 9.448 110.784 8.965 111.33 8.64299C111.876 8.30699 112.492 8.13899 113.178 8.13899ZM121.83 8.15999C123.86 8.15999 125.407 8.63599 126.471 9.58799C127.549 10.54 128.088 11.996 128.088 13.956V14.67H119.772C119.772 15.468 119.947 16.0699 120.297 16.476C120.661 16.882 121.228 17.085 121.998 17.085C122.698 17.085 123.209 16.938 123.531 16.644C123.867 16.35 124.035 15.958 124.035 15.468H128.088C128.088 16.812 127.577 17.862 126.555 18.618C125.533 19.374 124.042 19.752 122.082 19.752C120.024 19.752 118.428 19.276 117.294 18.324C116.16 17.358 115.593 15.9019 115.593 13.956C115.593 12.052 116.146 10.61 117.252 9.62999C118.358 8.65 119.884 8.15999 121.83 8.15999ZM121.998 10.827C120.682 10.827 119.947 11.45 119.793 12.696H123.867C123.867 12.122 123.699 11.667 123.363 11.331C123.041 10.995 122.586 10.827 121.998 10.827Z" fill="white"/>
<path d="M11.1429 24C17.7705 24 23.1431 18.6275 23.1431 12C23.1431 5.37258 17.7705 0 11.1429 0H6V5.14286H11.1429C14.9301 5.14286 18.0002 8.21289 18.0002 12C18.0002 15.7871 14.9301 18.8571 11.1429 18.8571H6V24H11.1429Z" fill="#007AFF"/>
<path d="M22.8765 9.42773C23.0489 10.2566 23.1431 11.1168 23.1431 12C23.1431 18.6274 18.0262 24 11.7144 24H6V18.8569H11.7144C11.8293 18.8569 11.9436 18.8529 12.0571 18.8467C17.3758 18.6822 21.7788 14.7065 22.8765 9.42773Z" fill="url(#paint0_linear_2116_823)"/>
<path d="M6.00009 6C6.00009 6 6.33114 9.08996 7.62066 10.3794C8.91016 11.6689 12.0002 12 12.0002 12C12.0002 12 8.91016 12.3311 7.62066 13.6205C6.33114 14.91 6.00009 18 6.00009 18C6.00009 18 5.66902 14.91 4.37952 13.6205C3.09001 12.3311 0 12 0 12C0 12 3.09001 11.6689 4.37952 10.3794C5.66902 9.08996 6.00009 6 6.00009 6Z" fill="#00FFFF"/>
</g>
<defs>
<linearGradient id="paint0_linear_2116_823" x1="23.1431" y1="12.4279" x2="8.14256" y2="20.9992" gradientUnits="userSpaceOnUse">
<stop stop-color="#96FFFD"/>
<stop offset="1" stop-color="#007AFF"/>
</linearGradient>
<clipPath id="clip0_2116_823">
<rect width="129" height="24" fill="white"/>
</clipPath>
</defs>
</svg>
